<svg width="14" height="13" viewBox="0 0 14 13" fill="none" xmlns="http://www.w3.org/2000/svg">
<path d="M6.82119 12.7926C6.02058 12.7926 5.27068 12.6405 4.57148 12.3363C3.87228 12.032 3.26382 11.6211 2.74609 11.1033C2.22836 10.5856 1.81738 9.97713 1.51315 9.27793C1.20892 8.57874 1.0568 7.82883 1.0568 7.02822C1.0568 6.22761 1.20892 5.47771 1.51315 4.77851C1.81738 4.07931 2.22836 3.47085 2.74609 2.95312C3.26382 2.43539 3.87228 2.02441 4.57148 1.72018C5.27068 1.41595 6.02058 1.26384 6.82119 1.26384C7.6218 1.26384 8.37171 1.41595 9.0709 1.72018C9.7701 2.02441 10.3786 2.43539 10.8963 2.95312C11.414 3.47085 11.825 4.07931 12.1292 4.77851C12.4335 5.47771 12.5856 6.22761 12.5856 7.02822C12.5856 7.82883 12.4335 8.57874 12.1292 9.27793C11.825 9.97713 11.414 10.5856 10.8963 11.1033C10.3786 11.6211 9.7701 12.032 9.0709 12.3363C8.37171 12.6405 7.6218 12.7926 6.82119 12.7926ZM8.61456 9.71827L9.51124 8.82159L7.46168 6.77203V3.82578H6.1807V7.28442L8.61456 9.71827ZM2.72207 0.207031L3.61875 1.10371L0.896682 3.82578L0 2.9291L2.72207 0.207031ZM10.9203 0.207031L13.6424 2.9291L12.7457 3.82578L10.0236 1.10371L10.9203 0.207031ZM6.82119 11.5116C8.07014 11.5116 9.12961 11.0766 9.99961 10.2066C10.8696 9.33665 11.3046 8.27717 11.3046 7.02822C11.3046 5.77927 10.8696 4.7198 9.99961 3.8498C9.12961 2.97981 8.07014 2.54481 6.82119 2.54481C5.57224 2.54481 4.51277 2.97981 3.64277 3.8498C2.77278 4.7198 2.33778 5.77927 2.33778 7.02822C2.33778 8.27717 2.77278 9.33665 3.64277 10.2066C4.51277 11.0766 5.57224 11.5116 6.82119 11.5116Z" fill="#1C1B1F"/>
</svg>
