<svg width="55" height="55" viewBox="0 0 55 55" fill="none" xmlns="http://www.w3.org/2000/svg">
<path d="M54.0264 6.04664C54.0264 3.25201 51.7572 0.982773 48.9626 0.982773L13.1913 0.982774C10.3967 0.982774 8.12746 3.25201 8.12746 6.04664C8.12746 8.84127 10.3967 11.1105 13.1913 11.1105L36.7668 11.0993L2.47113 45.395C0.492531 47.3736 0.492531 50.5707 2.47113 52.5493C4.44972 54.5278 7.64678 54.5278 9.62538 52.5493L43.9099 18.2648L43.921 41.8179C43.921 44.6125 46.1903 46.8818 48.9849 46.8818C51.7796 46.8818 54.0488 44.6125 54.0488 41.8179L54.0488 6.04664L54.0264 6.04664Z" fill="#0D0D0D"/>
</svg>
