<svg width="11" height="13" viewBox="0 0 11 13" fill="none" xmlns="http://www.w3.org/2000/svg">
<path d="M2.62445 11.6225H7.74835V9.70106C7.74835 8.99653 7.49749 8.3934 6.99578 7.89168C6.49406 7.38997 5.89094 7.13911 5.1864 7.13911C4.48186 7.13911 3.87874 7.38997 3.37702 7.89168C2.87531 8.3934 2.62445 8.99653 2.62445 9.70106V11.6225ZM5.1864 5.85814C5.89094 5.85814 6.49406 5.60728 6.99578 5.10556C7.49749 4.60385 7.74835 4.00072 7.74835 3.29619V1.37472H2.62445V3.29619C2.62445 4.00072 2.87531 4.60385 3.37702 5.10556C3.87874 5.60728 4.48186 5.85814 5.1864 5.85814ZM0.0625 12.9035V11.6225H1.34347V9.70106C1.34347 9.0499 1.49559 8.43877 1.79982 7.86767C2.10405 7.29656 2.52838 6.84022 3.07279 6.49862C2.52838 6.15703 2.10405 5.70068 1.79982 5.12958C1.49559 4.55848 1.34347 3.94735 1.34347 3.29619V1.37472H0.0625V0.09375H10.3103V1.37472H9.02932V3.29619C9.02932 3.94735 8.87721 4.55848 8.57298 5.12958C8.26875 5.70068 7.84442 6.15703 7.30001 6.49862C7.84442 6.84022 8.26875 7.29656 8.57298 7.86767C8.87721 8.43877 9.02932 9.0499 9.02932 9.70106V11.6225H10.3103V12.9035H0.0625Z" fill="#1C1B1F"/>
</svg>
