<svg width="11" height="11" viewBox="0 0 11 11" fill="none" xmlns="http://www.w3.org/2000/svg">
<path d="M5.1239 5.4989C4.41936 5.4989 3.81624 5.24804 3.31452 4.74633C2.81281 4.24461 2.56195 3.64149 2.56195 2.93695C2.56195 2.23241 2.81281 1.62929 3.31452 1.12757C3.81624 0.625858 4.41936 0.375 5.1239 0.375C5.82844 0.375 6.43156 0.625858 6.93328 1.12757C7.43499 1.62929 7.68585 2.23241 7.68585 2.93695C7.68585 3.64149 7.43499 4.24461 6.93328 4.74633C6.43156 5.24804 5.82844 5.4989 5.1239 5.4989ZM0 10.6228V8.82943C0 8.46649 0.0934044 8.1329 0.280213 7.82867C0.467022 7.52444 0.715211 7.29226 1.02478 7.13214C1.68662 6.80122 2.35913 6.55303 3.04232 6.38758C3.7255 6.22212 4.41936 6.13939 5.1239 6.13939C5.82844 6.13939 6.5223 6.22212 7.20548 6.38758C7.88867 6.55303 8.56118 6.80122 9.22302 7.13214C9.53259 7.29226 9.78078 7.52444 9.96759 7.82867C10.1544 8.1329 10.2478 8.46649 10.2478 8.82943V10.6228H0ZM1.28097 9.34182H8.96682V8.82943C8.96682 8.71201 8.93747 8.60526 8.87876 8.50919C8.82005 8.41312 8.74265 8.33839 8.64658 8.28502C8.07014 7.9968 7.48837 7.78064 6.90125 7.63653C6.31414 7.49242 5.72169 7.42036 5.1239 7.42036C4.52611 7.42036 3.93366 7.49242 3.34655 7.63653C2.75943 7.78064 2.17766 7.9968 1.60122 8.28502C1.50515 8.33839 1.42775 8.41312 1.36904 8.50919C1.31033 8.60526 1.28097 8.71201 1.28097 8.82943V9.34182ZM5.1239 4.21792C5.47617 4.21792 5.77773 4.0925 6.02859 3.84164C6.27945 3.59078 6.40487 3.28922 6.40487 2.93695C6.40487 2.58468 6.27945 2.28312 6.02859 2.03226C5.77773 1.7814 5.47617 1.65597 5.1239 1.65597C4.77163 1.65597 4.47007 1.7814 4.21921 2.03226C3.96835 2.28312 3.84292 2.58468 3.84292 2.93695C3.84292 3.28922 3.96835 3.59078 4.21921 3.84164C4.47007 4.0925 4.77163 4.21792 5.1239 4.21792Z" fill="#1C1B1F"/>
</svg>
